# xmcd
# 
# Track frame offsets:
#     150
#     14640
#     39890
#     81687
#     107987
#     129592
#     150307
#     171142
#     194101
#     215155
# 
# Disc length: 3096
# 
# Revision: 2
# Processed by: cddbd v1.5.2PL0 Copyright (c) Steve Scherf et al.
# Submitted via: fre:ac v1.0.17
# 
DISCID=900c160a
DTITLE=George Michael - Faith - Remastered - Disc 01
DYEAR=1987
DGENRE=Pop
TTITLE0=Faith
TTITLE1=Father Figure
TTITLE2=I Want Your Sex pt 1 and 2
TTITLE3=One More Try
TTITLE4=Hard Day
TTITLE5=Hand To Mouth
TTITLE6=Look At Your Hands
TTITLE7=Monkey
TTITLE8=Kissing A Fool
TTITLE9=A Last Request - I Want Your Sex pt 3
EXTD=
EXTT0=
EXTT1=
EXTT2=
EXTT3=
EXTT4=
EXTT5=
EXTT6=
EXTT7=
EXTT8=
EXTT9=
PLAYORDER=
